# xmcd
#
# Track frame offsets: 
#        150
#        9950
#        18663
#        25493
#        34939
#        44616
#        63370
#        72087
#        81966
#        90769
#        104223
#        117754
#        128945
#        142174
#        148256
#        158922
#        171318
#        181451
#        189952
#        204511
#        214423
#        221902
#        231258
#        240992
#        253868
#        265089
#        273920
#
# Disc length: 3824 seconds
#
# Revision: 1
# Processed by: cddbd v1.5.2PL0 Copyright (c) Steve Scherf et al.
# Submitted via: ExactAudioCopyFreeDBPlugin 1.0
#
DISCID=990eee1b
DTITLE=Waylon Jennings - The Journey - Destiny's Child - Vol. 1
DYEAR=1999
DGENRE=Country
TTITLE0=When Sin Stops
TTITLE1=Jole Blon
TTITLE2=Another Blue Day
TTITLE3=Never Again
TTITLE4=My Baby Walks All Over Me
TTITLE5=The Stage (Stars In Heaven)
TTITLE6=Rave On
TTITLE7=Love Denied
TTITLE8=Rave On
TTITLE9=Four Strong Winds
TTITLE10=I'm Coming Home
TTITLE11=Just To Satisfy You
TTITLE12=The Real House Of The Rising Sun
TTITLE13=Big Mamou
TTITLE14=Sing The Girls A Song, Bill
TTITLE15=River Boy
TTITLE16=The Race Is On
TTITLE17=Stepping Stone
TTITLE18=Unchained Melody
TTITLE19=When Sin Stops
TTITLE20=Another Blue Day
TTITLE21=Never Again
TTITLE22=My Baby Walks All Over Me
TTITLE23=I'm Coming Home
TTITLE24=Just To Satisfy You
TTITLE25=The South's Gonna Rise Again (Demo)
TTITLE26=Gulf Coast Belle (Demo)
EXTD=
EXTT0=
EXTT1=
EXTT2=
EXTT3=
EXTT4=
EXTT5=
EXTT6=
EXTT7=
EXTT8=
EXTT9=
EXTT10=
EXTT11=
EXTT12=
EXTT13=
EXTT14=
EXTT15=
EXTT16=
EXTT17=
EXTT18=
EXTT19=
EXTT20=
EXTT21=
EXTT22=
EXTT23=
EXTT24=
EXTT25=
EXTT26=
PLAYORDER=
